<svg width="206" height="36" viewBox="0 0 206 36" fill="none" xmlns="http://www.w3.org/2000/svg">
    <rect y="0.5" width="35" height="35" rx="6.83465" fill="white"/>
    <rect y="0.5" width="35" height="35" rx="6.83465" fill="#31008B"/>
    <path
        d="M25.5673 23.3729L24.0885 24.8529L22.3655 26.5748C22.1329 26.8074 21.8176 26.938 21.4886 26.938H9.10738C8.7651 26.938 8.4873 26.6602 8.4873 26.3179V9.66341C8.4873 9.32113 8.7651 9.04333 9.10738 9.04333H15.0866V19.7214C15.0866 20.0003 15.4228 20.1408 15.6201 19.9424L18.8787 16.6849L25.5673 23.3735V23.3729Z"
        fill="#7A49FF"/>
    <path
        d="M28.9763 19.9639L25.5666 23.3735L18.8781 16.6849L15.6195 19.9424C15.4222 20.1408 15.0859 20.0008 15.0859 19.7214V9.04333H25.764C26.0429 9.04333 26.1834 9.38066 25.985 9.57798L22.7264 12.8366L28.9763 19.0864C29.2182 19.3284 29.2182 19.7214 28.9763 19.9633V19.9639Z"
        fill="white"/>
    <g style="mix-blend-mode:multiply" opacity="0.3">
        <path d="M25.5675 23.3729L23.7833 25.1587L18.8789 16.6843L25.5675 23.3729Z" fill="#31008B"/>
    </g>
    <path
        d="M52.1029 29.4299C50.8113 29.4299 49.8389 29.1257 49.1838 28.5172C48.5287 27.9088 48.2002 26.9065 48.2002 25.5067V6.2323H51.7165V24.5642C51.7165 25.2323 51.8304 25.7101 52.0599 25.9938C52.2876 26.2775 52.7001 26.4194 53.2955 26.4194H54.2791V29.4299H52.1047H52.1029Z"
        fill="#2C2C2C"/>
    <path
        d="M59.2698 28.6236C58.0081 27.8639 57.0301 26.8206 56.3358 25.4917C55.6396 24.1647 55.2925 22.6697 55.2925 21.0068C55.2925 19.467 55.606 18.0168 56.2313 16.6599C56.8565 15.303 57.7897 14.2074 59.0328 13.3769C60.2739 12.5463 61.7689 12.1301 63.5159 12.1301C64.9847 12.1301 66.351 12.4493 67.6126 13.0876C68.8743 13.7259 69.8859 14.6946 70.6512 15.9917C71.4164 17.2889 71.799 18.8791 71.799 20.7641V21.6768H58.8685C58.988 22.4663 59.1765 23.0953 59.434 23.5619C59.8316 24.5156 60.4027 25.264 61.1474 25.8109C61.8921 26.3578 62.7413 26.6321 63.695 26.6321C64.7085 26.6321 65.5764 26.3634 66.3024 25.8258C67.0266 25.2883 67.5492 24.6145 67.8665 23.8045H71.5022C70.9666 25.5683 70.0315 27.0017 68.7008 28.1066C67.37 29.2115 65.6716 29.764 63.6055 29.764C61.9761 29.764 60.5315 29.3832 59.2698 28.6236ZM68.1334 18.8492C68.0531 18.2221 67.8758 17.6846 67.5977 17.2385C67.2002 16.5293 66.6533 15.988 65.959 15.6128C65.2628 15.2377 64.4883 15.051 63.6353 15.051C62.7824 15.051 61.9873 15.2396 61.3116 15.6128C60.636 15.988 60.0891 16.5293 59.6729 17.2385C59.4154 17.6435 59.2157 18.181 59.0776 18.8492H68.1352H68.1334Z"
        fill="#2C2C2C"/>
    <path
        d="M79.4553 29.4299C78.1638 29.4299 77.1914 29.1257 76.5363 28.5172C75.8811 27.9088 75.5527 26.9065 75.5527 25.5067V15.4132H73.0498V12.4344H75.5527V6.2323H79.069V12.4344H82.4658V15.4132H79.069V24.5026C79.069 25.1521 79.1679 25.6318 79.3676 25.9472C79.5654 26.2607 80.0022 26.4175 80.6778 26.4175H82.436V29.428H79.4572L79.4553 29.4299Z"
        fill="#2C2C2C"/>
    <path
        d="M86.7396 28.2429C85.2988 27.2294 84.4402 25.7494 84.1621 23.8046H87.7083C87.9472 24.777 88.4325 25.5273 89.1678 26.0536C89.9032 26.5818 90.8457 26.8449 91.9973 26.8449C92.9697 26.8449 93.7499 26.6583 94.3359 26.2832C94.922 25.908 95.215 25.3761 95.215 24.6874C95.215 24.1405 95.0302 23.7038 94.6644 23.3809C94.2967 23.0561 93.8394 22.8079 93.2944 22.6362C92.7476 22.4645 91.9992 22.276 91.0454 22.0744C89.7352 21.8112 88.6657 21.5369 87.8427 21.2532C87.0177 20.9695 86.3122 20.4992 85.728 19.8403C85.142 19.1815 84.8489 18.2744 84.8489 17.1191C84.8489 15.4972 85.4443 14.2616 86.637 13.4105C87.8296 12.5595 89.3377 12.1339 91.1649 12.1339C92.9921 12.1339 94.6607 12.6304 95.9317 13.6233C97.2027 14.6162 97.9866 15.9955 98.2852 17.7574H94.9779C94.739 16.8447 94.2818 16.1616 93.608 15.7062C92.9324 15.2508 92.1186 15.0231 91.1649 15.0231C90.2709 15.0231 89.5654 15.1948 89.0502 15.5401C88.5332 15.8854 88.2757 16.3501 88.2757 16.9381C88.2757 17.4252 88.4493 17.8153 88.7964 18.1083C89.1436 18.4032 89.5803 18.6253 90.1066 18.7765C90.6329 18.9276 91.3627 19.0956 92.2959 19.2785C93.6267 19.5212 94.7185 19.7955 95.5733 20.0998C96.4263 20.404 97.1616 20.8948 97.7776 21.5742C98.3935 22.2536 98.7014 23.1905 98.7014 24.3869C98.7014 26.0293 98.106 27.3358 96.9134 28.3082C95.7208 29.2806 94.0821 29.7677 91.9973 29.7677C89.9125 29.7677 88.1786 29.2619 86.7396 28.2485V28.2429Z"
        fill="#2C2C2C"/>
    <path
        d="M105.316 29.4299C104.025 29.4299 103.052 29.1257 102.397 28.5172C101.742 27.9088 101.414 26.9065 101.414 25.5067V6.2323H104.93V24.5642C104.93 25.2323 105.044 25.7101 105.273 25.9938C105.501 26.2775 105.913 26.4194 106.509 26.4194H107.492V29.4299H105.318H105.316Z"
        fill="#2C2C2C"/>
    <path
        d="M112.481 28.6236C111.22 27.8639 110.242 26.8206 109.547 25.4917C108.851 24.1647 108.504 22.6697 108.504 21.0068C108.504 19.467 108.817 18.0168 109.443 16.6599C110.068 15.303 111.001 14.2074 112.244 13.3769C113.485 12.5463 114.98 12.1301 116.727 12.1301C118.196 12.1301 119.562 12.4493 120.824 13.0876C122.086 13.7259 123.097 14.6946 123.863 15.9917C124.628 17.2889 125.01 18.8791 125.01 20.7641V21.6768H112.08C112.199 22.4663 112.388 23.0953 112.645 23.5619C113.043 24.5156 113.614 25.264 114.359 25.8109C115.104 26.3578 115.953 26.6321 116.906 26.6321C117.92 26.6321 118.788 26.3634 119.514 25.8258C120.238 25.2883 120.761 24.6145 121.078 23.8045H124.714C124.178 25.5683 123.243 27.0017 121.912 28.1066C120.581 29.2115 118.883 29.764 116.817 29.764C115.188 29.764 113.743 29.3832 112.481 28.6236ZM121.345 18.8492C121.265 18.2221 121.087 17.6846 120.809 17.2385C120.412 16.5293 119.865 15.988 119.17 15.6128C118.474 15.2377 117.7 15.051 116.847 15.051C115.994 15.051 115.199 15.2396 114.523 15.6128C113.847 15.988 113.301 16.5293 112.884 17.2385C112.627 17.6435 112.427 18.181 112.289 18.8492H121.347H121.345Z"
        fill="#2C2C2C"/>
    <path
        d="M128.525 28.4557C127.532 27.5841 127.036 26.369 127.036 24.8068C127.036 23.2447 127.642 21.9792 128.854 21.0666C129.727 20.4189 131.019 19.9224 132.726 19.5772L137.999 18.573C137.978 17.4383 137.682 16.5667 137.105 15.9582C136.489 15.3311 135.655 15.0157 134.602 15.0157C133.747 15.0157 133.003 15.2639 132.368 15.7604C131.732 16.2568 131.336 16.9306 131.175 17.7817H127.659C127.937 15.9582 128.736 14.5584 130.057 13.586C131.379 12.6136 132.902 12.1265 134.63 12.1265C135.623 12.1265 136.552 12.2683 137.417 12.552C138.281 12.8357 139.02 13.2612 139.636 13.8286C140.45 14.5995 140.961 15.5009 141.17 16.5349C141.379 17.5689 141.484 18.7951 141.484 20.2136V29.4262H137.967V26.9943C137.53 27.7651 136.974 28.3735 136.299 28.8178C135.365 29.4449 134.083 29.7603 132.456 29.7603C130.828 29.7603 129.516 29.3254 128.523 28.4538L128.525 28.4557ZM135.526 26.328C136.459 25.8408 137.111 25.2025 137.478 24.413C137.846 23.6217 138.029 22.5784 138.029 21.2812L133.589 22.1621C132.437 22.4048 131.621 22.7501 131.145 23.1961C130.748 23.6011 130.55 24.1088 130.55 24.7154C130.55 25.3836 130.793 25.9062 131.28 26.2813C131.767 26.6565 132.416 26.8431 133.232 26.8431C134.048 26.8431 134.811 26.6714 135.526 26.3261V26.328Z"
        fill="#2C2C2C"/>
    <path
        d="M144.733 29.4299V12.4344H148.249V14.5621C148.904 13.6699 149.625 13.0428 150.409 12.677C151.193 12.313 152.122 12.1301 153.195 12.1301H153.582V15.6259H152.688C151.357 15.6259 150.334 15.9899 149.619 16.7196C148.705 17.5912 148.249 19.0918 148.249 21.2195V29.428H144.733V29.4299Z"
        fill="#2C2C2C"/>
    <path
        d="M155.789 29.43V12.4344H159.306V14.7451C160 13.7727 160.717 13.0933 161.45 12.7088C162.186 12.3243 163.02 12.1321 163.953 12.1321C166.456 12.1321 168.154 13.0541 169.048 14.8981C169.386 15.5663 169.595 16.2456 169.674 16.9343C169.752 17.623 169.793 18.4741 169.793 19.4876V29.43H166.247V19.4876C166.247 18.5954 166.182 17.8657 166.053 17.2983C165.924 16.7309 165.709 16.2848 165.413 15.9601C164.937 15.4132 164.181 15.1389 163.149 15.1389C161.937 15.1389 161.034 15.5028 160.437 16.2326C160.039 16.6992 159.752 17.317 159.573 18.0878C159.394 18.8586 159.304 19.9113 159.304 21.2495V29.4281H155.788L155.789 29.43Z"
        fill="#2C2C2C"/>
    <path
        d="M173.696 26.9662C173.438 26.4193 173.253 25.8053 173.145 25.1278C173.035 24.4484 172.981 23.532 172.981 22.3767V12.4343H176.497V22.4065C176.497 24.1087 176.785 25.2845 177.361 25.934C177.837 26.4809 178.593 26.7553 179.625 26.7553C180.758 26.7553 181.652 26.3913 182.307 25.6616C182.724 25.195 183.022 24.5716 183.201 23.7914C183.381 23.0113 183.47 21.9623 183.47 20.6447V12.4362H186.986V29.4317H183.47V27.1211C182.774 28.0543 182.065 28.7281 181.341 29.1424C180.615 29.5567 179.767 29.7658 178.793 29.7658C176.29 29.7658 174.592 28.8345 173.698 26.968L173.696 26.9662Z"
        fill="#2C2C2C"/>
    <path
        d="M193.188 29.4299H189.136L194.917 20.8874L189.136 12.4363H193.188L197.151 18.4554L201.143 12.4363H205.284L199.385 20.8874L205.284 29.4299H201.173L197.151 23.379L193.188 29.4299Z"
        fill="#2C2C2C"/>
</svg>
