<svg width="472" height="328" viewBox="0 0 472 328" fill="none" xmlns="http://www.w3.org/2000/svg">
<g clip-path="url(#clip0_338_28400)">
<path d="M354.281 292.729H79.627V294.9H354.281V292.729Z" fill="#000913"/>
<path d="M471.204 292.729H455.699V294.9H471.204V292.729Z" fill="#000913"/>
<path d="M154.662 293.814H195.443C195.291 292.164 195.15 290.492 195.031 288.754C193.684 268.755 195.356 253.825 199.993 243.999C204.683 234.184 211.719 228.961 221.1 228.321C230.274 227.659 237.766 231.893 243.532 241.035C249.351 250.177 252.88 264.716 254.281 284.715C254.498 287.875 254.628 290.904 254.693 293.814H296.006C296.017 289.938 295.898 285.975 295.616 281.903C294.747 268.765 292.554 256.659 289.068 245.693C285.594 234.727 280.708 225.346 274.422 217.626C268.081 209.895 260.35 204.032 251.219 200.026C242.033 196.074 231.447 194.456 219.384 195.27C207.104 196.106 196.681 199.136 188.049 204.336C179.472 209.548 172.523 216.377 167.333 224.901C162.099 233.413 158.451 243.337 156.301 254.694C154.195 266.062 153.554 278.331 154.467 291.534C154.543 292.305 154.608 293.054 154.662 293.814Z" fill="white"/>
<path d="M297.092 294.9H253.629L253.607 293.836C253.542 290.882 253.401 287.842 253.195 284.78C251.816 264.998 248.254 250.47 242.608 241.61C237.093 232.87 229.872 228.777 221.165 229.396C212.12 230.004 205.508 234.933 200.959 244.455C196.409 254.097 194.77 268.983 196.094 288.678C196.214 290.394 196.355 292.066 196.507 293.705L196.615 294.889H153.641L153.511 293.26C153.467 292.706 153.424 292.153 153.38 291.588C152.468 278.505 153.087 266.029 155.226 254.488C157.409 242.979 161.176 232.827 166.41 224.314C171.61 215.769 178.7 208.734 187.484 203.392C196.225 198.115 206.93 195.01 219.308 194.163C231.414 193.337 242.294 194.966 251.653 199.005C260.893 203.055 268.84 209.081 275.257 216.909C281.598 224.694 286.593 234.26 290.1 245.335C293.596 256.377 295.811 268.646 296.69 281.805C296.962 285.714 297.092 289.742 297.081 293.792L297.092 294.9ZM255.757 292.728H294.931C294.92 289.102 294.79 285.486 294.54 281.979C293.683 268.993 291.489 256.898 288.048 246.019C284.617 235.194 279.752 225.878 273.596 218.31C267.396 210.753 259.72 204.933 250.806 201.025C241.772 197.127 231.23 195.563 219.482 196.356C207.462 197.181 197.082 200.178 188.635 205.27C180.155 210.427 173.304 217.224 168.288 225.465C163.196 233.75 159.526 243.652 157.387 254.9C155.291 266.257 154.672 278.559 155.574 291.458C155.606 291.881 155.639 292.305 155.671 292.728H194.259C194.151 291.458 194.042 290.155 193.945 288.83C192.598 268.755 194.303 253.521 199.015 243.532C203.868 233.38 211.273 227.897 221.034 227.235C221.675 227.192 222.315 227.17 222.945 227.17C231.664 227.17 238.895 231.643 244.465 240.449C250.382 249.743 253.955 264.194 255.377 284.639C255.551 287.365 255.681 290.079 255.757 292.728Z" fill="#000913"/>
<path d="M447.831 293.814L445.074 276.713L425.606 278.027L422.652 234.749L385.335 237.311L388.288 280.535L349.624 283.206L397.669 166.357L363.001 155.977L306.074 293.814H447.831Z" fill="#566474"/>
<path d="M449.112 294.9H304.445L362.371 154.663L399.135 165.662L351.296 282.001L387.137 279.515L384.173 236.291L423.662 233.587L426.615 276.865L445.985 275.552L449.112 294.9ZM307.692 292.728H446.55L444.15 277.854L424.596 279.178L421.642 235.911L386.485 238.321L389.45 281.545L347.952 284.412L396.203 167.052L363.619 157.301L307.692 292.728Z" fill="#566474"/>
<path d="M155.152 293.814L152.394 276.713L132.926 278.027L129.973 234.749L92.6552 237.311L95.6084 280.535L56.9445 283.206L104.989 166.357L70.321 155.977L13.3945 293.814H155.152Z" fill="#566474"/>
<path d="M156.433 294.9H11.7656L69.691 154.663L106.455 165.662L58.6163 282.001L94.4573 279.515L91.4931 236.291L130.982 233.587L133.936 276.865L153.306 275.552L156.433 294.9ZM15.0121 292.728H153.87L151.471 277.854L131.916 279.178L128.963 235.911L93.8058 238.321L96.77 281.545L55.2721 284.412L103.523 167.052L70.9397 157.301L15.0121 292.728Z" fill="#566474"/>
<path d="M214.606 199.569L214.606 199.569C220.561 199.09 226.005 199.588 229.986 200.763C231.978 201.351 233.575 202.1 234.686 202.958C235.797 203.816 236.375 204.743 236.453 205.694C236.529 206.646 236.108 207.654 235.149 208.678C234.191 209.703 232.735 210.699 230.862 211.599C227.121 213.397 221.826 214.761 215.866 215.24C209.905 215.719 204.459 215.221 200.478 214.046C198.486 213.457 196.889 212.708 195.78 211.85C194.671 210.993 194.094 210.066 194.018 209.115C193.942 208.163 194.364 207.155 195.322 206.13C196.281 205.106 197.737 204.11 199.609 203.21C203.351 201.412 208.646 200.048 214.606 199.569ZM214.563 199.028L214.563 199.028L214.563 199.028Z" fill="#FDF1E5" stroke="#FDF1E5" stroke-width="1.08576"/>
<path d="M257.646 208.063C257.539 208.357 257.286 208.631 256.83 208.851C256.37 209.072 255.738 209.22 254.961 209.268C253.408 209.365 251.382 209.056 249.263 208.299C247.144 207.541 245.383 206.492 244.247 205.431C243.678 204.9 243.285 204.385 243.072 203.921C242.86 203.461 242.839 203.089 242.946 202.794C243.052 202.499 243.305 202.225 243.762 202.005C244.222 201.783 244.853 201.635 245.631 201.587C247.183 201.491 249.209 201.799 251.328 202.557C253.442 203.32 255.2 204.369 256.337 205.429C256.906 205.959 257.3 206.474 257.515 206.937C257.727 207.396 257.75 207.768 257.646 208.063Z" fill="#FDF1E5" stroke="#FDF1E5" stroke-width="1.08576"/>
<path d="M13.8377 292.729H0.808594V294.9H13.8377V292.729Z" fill="#000913"/>
<path d="M68.3747 310.438H55.6387V312.61H68.3747V310.438Z" fill="#000913"/>
<path d="M109.602 310.438H86.584V312.61H109.602V310.438Z" fill="#000913"/>
<path d="M364.538 310.438H354.277V312.61H364.538V310.438Z" fill="#000913"/>
<path d="M421.541 310.438H376.949V312.61H421.541V310.438Z" fill="#000913"/>
<path d="M48.0404 325.497H36.8027V327.669H48.0404V325.497Z" fill="#000913"/>
<path d="M438.37 325.497H427.133V327.669H438.37V325.497Z" fill="#000913"/>
<path d="M203.477 206.877C201.968 206.877 200.763 205.661 200.763 204.152C200.817 180.45 193.749 164.902 191.936 162.014C191.566 161.655 191.306 161.188 191.186 160.656C190.958 159.636 191.338 158.55 192.164 157.899C192.978 157.258 194.107 157.139 195.041 157.595C197.592 158.832 201.414 170.852 201.447 170.971C203.629 177.953 206.224 189.375 206.192 204.163C206.192 205.661 204.976 206.877 203.477 206.877Z" fill="#000913"/>
<path d="M268.036 176.346C267.363 176.346 266.689 176.096 266.157 175.596C265.072 174.554 265.039 172.839 266.071 171.753C267.895 169.831 272.639 163.523 270.544 159.853C268.351 156.02 259.48 152.567 254.41 151.297C252.955 150.928 252.075 149.462 252.433 148.007C252.803 146.552 254.268 145.673 255.723 146.031C257.298 146.422 271.185 150.081 275.245 157.16C279.795 165.108 270.392 175.086 269.979 175.51C269.458 176.063 268.742 176.346 268.036 176.346Z" fill="#000913"/>
<path d="M248.927 77.0526C248.503 77.0526 248.069 76.9549 247.667 76.7378C246.343 76.0429 245.832 74.3925 246.527 73.0679L264.584 38.8012C265.278 37.4766 266.929 36.9663 268.253 37.6612C269.578 38.3561 270.088 40.0064 269.394 41.331L251.337 75.5977C250.849 76.5206 249.904 77.0526 248.927 77.0526Z" fill="#000913"/>
<path d="M178.557 100.993C178.46 100.993 178.373 100.993 178.275 100.982L134.66 96.4112C133.173 96.2592 132.087 94.9237 132.239 93.4254C132.391 91.9379 133.726 90.863 135.225 91.0041L178.84 95.5752C180.327 95.7272 181.413 97.0627 181.261 98.5611C181.109 99.9617 179.925 100.993 178.557 100.993Z" fill="#000913"/>
<path d="M270.251 152.47L198.081 174.783C196.626 175.228 195.084 174.414 194.628 172.959L168.255 87.672C168.038 86.9772 168.103 86.228 168.439 85.5874L177.744 67.7483C178.081 67.0968 178.667 66.6083 179.373 66.3911L238.015 48.2589C239.47 47.8137 241.012 48.628 241.468 50.083L272.065 149.018C272.521 150.473 271.706 152.025 270.251 152.47Z" fill="white"/>
<path d="M197.266 175.999C195.572 175.999 194.096 174.913 193.596 173.295L167.223 88.0085C166.919 87.0314 167.017 85.9999 167.484 85.0987L176.789 67.2596C177.256 66.3584 178.092 65.6636 179.058 65.3704L237.7 47.2382C238.069 47.1187 238.449 47.0645 238.84 47.0645C240.534 47.0645 242.01 48.1502 242.51 49.768L273.107 148.703C273.411 149.68 273.313 150.722 272.835 151.634C272.358 152.546 271.554 153.209 270.577 153.513L198.406 175.825C198.037 175.934 197.657 175.999 197.266 175.999ZM238.84 49.2251C238.677 49.2251 238.503 49.2468 238.341 49.3011L179.699 67.4333C179.275 67.5636 178.917 67.8677 178.711 68.2585L169.406 86.0867C169.199 86.4776 169.156 86.9336 169.286 87.3571L195.659 172.644C195.931 173.512 196.875 174.023 197.744 173.751L269.915 151.428C270.338 151.298 270.685 151.004 270.903 150.614C271.109 150.223 271.152 149.767 271.022 149.343L240.436 50.3977C240.219 49.7029 239.578 49.2251 238.84 49.2251Z" fill="#000913"/>
<path d="M207.156 107.264C205.886 101.781 208.329 95.7982 212.607 93.8982C216.885 91.9981 221.38 94.8971 222.65 100.38C223.921 105.863 221.478 111.846 217.2 113.746C212.922 115.635 208.427 112.736 207.156 107.264Z" fill="#000913"/>
<path d="M217.199 113.736C219.143 112.878 220.695 111.173 221.705 109.056C219.707 107.036 216.949 106.352 214.278 107.536C212.335 108.394 210.782 110.109 209.783 112.226C211.781 114.246 214.528 114.93 217.199 113.736Z" fill="#EA7600"/>
<path d="M180.267 82.213L169.08 85.6742L178.219 68.3498L181.689 79.5243C181.689 79.5247 181.689 79.5251 181.689 79.5255C182.036 80.664 181.4 81.8668 180.269 82.2124L180.267 82.213Z" fill="#FDF1E5" stroke="#FDF1E5" stroke-width="1.08576"/>
<path d="M166.877 88.063L167.083 86.3909C167.116 86.152 167.17 85.9132 167.246 85.6852L167.322 85.5114L177.517 66.3043C177.561 66.2609 177.604 66.2174 177.648 66.174L178.907 65.0665L183.229 79.0511C183.522 80.0175 183.435 81.0381 182.957 81.9284C182.49 82.8187 181.698 83.4811 180.731 83.7742L166.877 88.063ZM178.082 69.7679L170.167 84.7731L180.091 81.7004C180.503 81.5701 180.84 81.2987 181.035 80.9187C181.231 80.5386 181.274 80.1043 181.144 79.6917L178.082 69.7679Z" fill="#000913"/>
<path d="M225.453 81.8519C225.605 83.1114 224.715 84.2515 223.455 84.4035C222.196 84.5555 221.056 83.6652 220.904 82.4057C220.752 81.1462 221.642 80.0061 222.901 79.8541C224.161 79.7021 225.301 80.6033 225.453 81.8519Z" fill="#000913"/>
<path d="M203.01 90.3431C203.162 91.6026 202.271 92.7426 201.012 92.8946C199.752 93.0466 198.612 92.1563 198.46 90.8968C198.308 89.6373 199.199 88.4973 200.458 88.3453C201.718 88.1933 202.858 89.0836 203.01 90.3431Z" fill="#000913"/>
<path d="M103.205 22.233H63.3796C62.3155 22.233 61.2732 21.7878 60.5457 21.0169C59.8074 20.2351 59.4274 19.2145 59.4817 18.1396C59.5142 17.575 59.6011 16.9996 59.7423 16.435C60.5674 13.2754 63.1624 10.865 66.3545 10.2896C68.0918 9.9747 69.8616 10.2027 71.4142 10.9302C72.7388 4.79561 78.1676 0.33313 84.5845 0.33313C90.9253 0.33313 96.2673 4.63275 97.6896 10.713C98.4388 10.5719 99.188 10.5502 99.9589 10.6262C103.857 11.0387 106.929 14.296 107.103 18.2156C107.147 19.3231 106.767 20.2894 106.05 21.0278C105.301 21.7878 104.269 22.233 103.205 22.233ZM67.8963 12.0919C67.5055 12.0919 67.1037 12.1245 66.702 12.2005C64.2916 12.6348 62.2504 14.524 61.6315 16.9127C61.5229 17.347 61.4469 17.7922 61.4252 18.2265C61.3926 18.7585 61.588 19.2688 61.9572 19.6597C62.3372 20.0506 62.8367 20.2786 63.3904 20.2786H103.205C103.748 20.2786 104.269 20.0506 104.649 19.6706C104.997 19.3123 105.181 18.8454 105.16 18.3568C105.029 15.3818 102.652 12.8628 99.7526 12.548C98.8948 12.4611 98.0479 12.548 97.2336 12.8194L96.1479 13.1777L95.9741 12.0485C95.1055 6.38083 90.3173 2.27664 84.5953 2.27664C78.6888 2.27664 73.7594 6.70655 73.1297 12.5697L72.956 14.2092L71.6096 13.2646C70.5022 12.5045 69.221 12.0919 67.8963 12.0919Z" fill="#000913"/>
<path d="M375.212 21.874H342.4C341.097 21.874 339.816 21.342 338.904 20.43C338.025 19.5505 337.547 18.3996 337.547 17.1835C337.547 16.6081 337.601 16.0218 337.71 15.4572C338.361 11.9067 341.054 9.00774 344.55 8.06313C346.114 7.63968 347.731 7.61797 349.284 8.00884C351.455 3.54636 355.951 0.70166 360.956 0.70166C366.754 0.70166 371.89 4.63212 373.453 10.1478C377.134 10.3975 380.054 13.4702 380.054 17.2052C380.044 19.8002 377.861 21.874 375.212 21.874ZM347.026 9.6592C346.363 9.6592 345.701 9.74606 345.049 9.93064C342.27 10.6798 340.131 12.9925 339.61 15.8046C339.523 16.2606 339.48 16.7275 339.48 17.1835C339.48 17.8784 339.762 18.5407 340.272 19.051C340.826 19.6048 341.597 19.9305 342.389 19.9305H375.201C376.765 19.9305 378.1 18.6927 378.111 17.2378C378.111 14.3714 375.809 12.0696 372.975 12.0696C372.888 12.0804 372.812 12.0913 372.736 12.1022L371.922 12.1347L371.748 11.3313C370.652 6.29334 366.113 2.63432 360.956 2.63432C356.439 2.63432 352.422 5.33786 350.717 9.52891L350.37 10.3867L349.501 10.0826C348.687 9.80035 347.862 9.6592 347.026 9.6592Z" fill="#000913"/>
</g>
<defs>
<clipPath id="clip0_338_28400">
<rect width="470.385" height="327.336" fill="white" transform="translate(0.808594 0.332275)"/>
</clipPath>
</defs>
</svg>
