<svg width="280" height="218" viewBox="0 0 280 218" fill="none" xmlns="http://www.w3.org/2000/svg">
<path d="M249.953 209.398H172.237V132.076H249.953C253.125 132.076 256.053 133.776 257.626 136.529L274.668 166.353C276.221 169.07 276.221 172.406 274.668 175.122L257.626 204.946C256.053 207.699 253.125 209.398 249.953 209.398Z" fill="#AA95FD"/>
<path d="M274.669 166.353L257.626 136.528C256.053 133.775 253.125 132.076 249.954 132.076H234.489C237.66 132.076 240.588 133.775 242.162 136.528L259.204 166.353C260.757 169.07 260.757 172.405 259.204 175.122L242.162 204.946C240.588 207.7 237.66 209.399 234.489 209.399H249.954C253.125 209.399 256.053 207.7 257.626 204.946L274.669 175.122C276.221 172.405 276.221 169.07 274.669 166.353Z" fill="#643EF3"/>
<path d="M172.237 209.398H89.3913V132.076H172.236L191.823 166.353C193.375 169.07 193.375 172.405 191.823 175.121L172.237 209.398Z" fill="#83BCFF"/>
<path d="M191.823 166.353L172.236 132.076H156.772L176.359 166.353C177.911 169.07 177.911 172.405 176.359 175.122L156.772 209.398H172.236L191.823 175.122C193.376 172.405 193.376 169.07 191.823 166.353Z" fill="#1782FF"/>
<path d="M89.3913 209.398H4.10068V132.076H89.3913L108.978 166.353C110.53 169.07 110.53 172.405 108.978 175.121L89.3913 209.398Z" fill="#F7C899"/>
<path d="M108.978 166.353L89.3912 132.076H73.9268L93.5138 166.353C95.066 169.07 95.066 172.405 93.5138 175.122L73.9268 209.398H89.3912L108.978 175.122C110.53 172.405 110.53 169.07 108.978 166.353Z" fill="#EA7600"/>
<path d="M272.515 47.4206H217.32V6.55066H272.515C275.024 6.55066 276.624 9.23249 275.43 11.4403L268.162 24.885C267.454 26.1961 267.454 27.7763 268.162 29.0868L275.43 42.5315C276.623 44.7393 275.024 47.4206 272.515 47.4206Z" fill="#AA95FD"/>
<path d="M268.162 29.0868C267.454 27.7757 267.454 26.1956 268.162 24.885L275.43 11.4403C276.623 9.23249 275.024 6.55066 272.514 6.55066H258.155C260.664 6.55066 262.263 9.23249 261.07 11.4403L253.802 24.885C253.094 26.1961 253.094 27.7763 253.802 29.0868L261.07 42.5315C262.263 44.7393 260.664 47.4212 258.155 47.4212H272.514C275.024 47.4212 276.623 44.7393 275.43 42.5315L268.162 29.0868Z" fill="#643EF3"/>
<path d="M139.967 66.1988C148.202 66.1988 154.879 59.5224 154.879 51.2866C154.879 43.0508 148.202 36.3744 139.967 36.3744C131.731 36.3744 125.054 43.0508 125.054 51.2866C125.054 59.5224 131.731 66.1988 139.967 66.1988Z" fill="#83BCFF"/>
<path d="M146.417 37.8386C147.355 39.7905 147.881 41.9787 147.881 44.2892C147.881 52.525 141.204 59.2015 132.969 59.2015C130.658 59.2015 128.471 58.6755 126.518 57.7378C128.923 62.7439 134.041 66.1994 139.966 66.1994C148.202 66.1994 154.878 59.5229 154.878 51.2872C154.879 45.362 151.423 40.2438 146.417 37.8386Z" fill="#1782FF"/>
<path d="M48.3742 77.499C56.61 77.499 63.2864 70.8225 63.2864 62.5868C63.2864 54.351 56.61 47.6746 48.3742 47.6746C40.1384 47.6746 33.462 54.351 33.462 62.5868C33.462 70.8225 40.1384 77.499 48.3742 77.499Z" fill="#F7C899"/>
<path d="M54.8248 49.1381C55.763 51.09 56.2884 53.2781 56.2884 55.5887C56.2884 63.8245 49.612 70.5009 41.3762 70.5009C39.0656 70.5009 36.8781 69.9749 34.9256 69.0372C37.3308 74.0433 42.449 77.4988 48.3736 77.4988C56.6094 77.4988 63.2858 70.8224 63.2858 62.5866C63.2864 56.6614 59.8303 51.5438 54.8248 49.1381Z" fill="#EA7600"/>
<path d="M261.187 134.496C258.888 130.473 254.584 127.973 249.955 127.973H221.42V50.6679H238.54C240.804 50.6679 242.64 48.8325 242.64 46.5673C242.64 44.302 240.805 42.4666 238.54 42.4666H221.421V9.7985H271.196L264.56 22.0764C263.181 24.6128 263.18 27.6441 264.555 30.1848L271.192 42.4666H257.676C255.41 42.4666 253.575 44.302 253.575 46.5673C253.575 48.8325 255.41 50.6679 257.676 50.6679H272.514C275.154 50.6679 277.536 49.3136 278.886 47.0462C280.236 44.7805 280.29 42.0434 279.035 39.729L271.767 26.2821C271.717 26.1897 271.716 26.0831 271.769 25.9857L279.033 12.5459C280.29 10.2261 280.235 7.48736 278.885 5.21997C277.534 2.95148 275.153 1.59717 272.513 1.59717H217.321C216.188 1.59717 215.163 2.05645 214.421 2.79894C213.678 3.54089 213.219 4.5666 213.219 5.69893V127.973H144.067V68.9985C152.586 67.1176 158.98 59.5117 158.98 50.4361C158.98 39.9526 150.451 31.4232 139.967 31.4232C129.483 31.4232 120.954 39.9521 120.954 50.4361C120.954 59.5117 127.348 67.1182 135.866 68.9985V127.973H127.829C125.564 127.973 123.728 129.809 123.728 132.074C123.728 134.339 125.564 136.175 127.829 136.175H169.855L188.263 168.388C189.091 169.837 189.091 171.638 188.263 173.088L169.856 205.3H96.4565L112.538 177.157C114.801 173.197 114.801 168.278 112.538 164.319L96.4554 136.175H108.693C110.958 136.175 112.794 134.339 112.794 132.074C112.794 129.809 110.958 127.973 108.693 127.973H52.4749V81.149C60.9933 79.2682 67.3871 71.6622 67.3871 62.5866C67.3871 52.1032 58.8582 43.5738 48.3742 43.5738C37.8902 43.5738 29.3613 52.1026 29.3613 62.5866C29.3613 71.6622 35.7551 79.2687 44.2735 81.149V127.973H4.10067C1.83601 127.973 0 129.809 0 132.074V209.4C0 211.665 1.83546 213.501 4.10067 213.501H207.752C210.017 213.501 211.853 211.665 211.853 209.4C211.853 207.135 210.018 205.299 207.752 205.299H179.301L195.383 177.156C197.646 173.197 197.646 168.277 195.383 164.319L179.3 136.174H249.955C251.648 136.174 253.223 137.09 254.065 138.564L271.107 168.389C271.935 169.838 271.935 171.64 271.107 173.09L254.065 202.91C253.223 204.384 251.648 205.299 249.955 205.299H226.888C224.623 205.299 222.787 207.135 222.787 209.4C222.787 211.665 224.623 213.501 226.888 213.501H249.955C254.584 213.501 258.888 211.002 261.186 206.979L278.228 177.159C280.491 173.199 280.491 168.28 278.228 164.321L261.187 134.496ZM129.155 50.4356C129.155 44.4743 134.005 39.624 139.967 39.624C145.928 39.624 150.778 44.4743 150.778 50.4356C150.778 56.3968 145.928 61.2471 139.967 61.2471C134.005 61.2471 129.155 56.3968 129.155 50.4356ZM37.5627 62.5861C37.5627 56.6248 42.4129 51.7746 48.3742 51.7746C54.3355 51.7746 59.1858 56.6248 59.1858 62.5861C59.1858 68.5474 54.3355 73.3976 48.3742 73.3976C42.4129 73.3976 37.5627 68.5479 37.5627 62.5861ZM8.20134 136.174H87.0102L105.418 168.388C106.246 169.837 106.246 171.638 105.418 173.088L87.0113 205.299H8.20134V136.174Z" fill="#000913"/>
</svg>
