<svg width="172" height="176" viewBox="0 0 172 176" fill="none" xmlns="http://www.w3.org/2000/svg">
<g clip-path="url(#clip0_250_10952)">
<path d="M170.797 109.223C169.997 113.796 168.79 118.379 167.157 122.945C161.974 137.433 142.427 160.847 119.388 167.303C108.849 170.256 85.6405 171.313 74.4285 170.261C41.0594 167.131 16.0283 146.214 9.18376 136.087C-2.77492 118.396 -4.08429 93.0444 11.4152 81.4278C15.4348 78.415 17.6518 75.5014 18.8156 72.6775C20.653 68.2233 19.8735 63.9927 19.4207 59.9518C19.3822 59.6079 19.3456 59.1849 19.3147 58.6916C18.7598 49.7101 20.1231 17.1927 44.9374 6.03563C70.5496 -5.47985 93.3079 1.03326 115.829 12.6085C155.463 32.9774 177.542 70.7245 170.797 109.223Z" fill="#FEF8F2"/>
<mask id="mask0_250_10952" style="mask-type:luminance" maskUnits="userSpaceOnUse" x="-1" y="0" width="173" height="171">
<path d="M170.797 109.223C169.997 113.796 168.79 118.379 167.157 122.945C161.974 137.433 142.427 160.847 119.388 167.302C108.849 170.255 85.6405 171.313 74.4285 170.261C41.0594 167.131 16.0283 146.214 9.18376 136.087C-2.77492 118.396 -4.08429 93.0442 11.4152 81.4275C15.4348 78.4147 17.6518 75.5012 18.8156 72.6772C20.653 68.2231 19.8735 63.9924 19.4207 59.9516C19.3822 59.6076 19.3456 59.1847 19.3147 58.6914C18.7598 49.7098 20.1231 17.1925 44.9374 6.03539C70.5496 -5.48009 93.3079 1.03301 115.829 12.6082C155.463 32.9771 177.542 70.7242 170.797 109.223Z" fill="white"/>
</mask>
<g mask="url(#mask0_250_10952)">
<path d="M53.873 103.202L54.216 97.1466C46.5535 90.1806 40.2841 82.8669 39.5875 79.3829C38.891 75.9009 41.3295 75.2043 41.3295 75.2043C39.2397 69.9803 43.7671 68.935 43.7671 68.935C41.6783 62.3178 47.9476 61.2724 47.9476 61.2724C46.5545 57.0938 45.4272 56.2344 49.258 56.931C51.7938 57.3925 63.3228 63.1175 68.1479 67.3982C71.0489 69.9717 72.815 73.5876 73.0607 77.4579L75.3557 103.201L74.3835 175.082H37.4409L53.873 103.202Z" fill="#F7C899"/>
<path d="M133.654 79.4947C132.957 82.9786 126.688 90.2924 119.026 97.2583L119.326 102.562L119.356 103.091L119.386 103.62L136.73 175.083H99.0796L97.8579 103.62L97.9042 103.091L97.9523 102.562L100.181 77.5697C100.426 73.6994 102.193 70.0834 105.094 67.51C109.92 63.2293 122.368 56.9821 124.904 56.5206C128.734 55.824 126.687 57.2046 125.294 61.3842C125.294 61.3842 131.563 62.4296 129.474 69.0467C129.474 69.0467 134.002 70.0921 131.912 75.3161C131.913 75.3161 134.351 76.0127 133.654 79.4947Z" fill="#F7C899"/>
<path d="M83.4803 92.6817C83.4803 92.6817 84.8118 103.865 77.1792 111.232C69.5465 118.598 65.286 118.243 64.5759 121.083H86.9999V90.907L83.4803 92.6817Z" fill="#FF9E29"/>
<path d="M90.5186 92.6817C90.5186 92.6817 89.1871 103.865 96.8197 111.232C104.452 118.598 108.713 118.243 109.423 121.083H86.999V90.907L90.5186 92.6817Z" fill="#F7AB48"/>
<path d="M71.4374 85.8381C61.9125 83.86 53.9195 77.0916 48.3207 66.265C44.1797 58.2566 42.799 50.9033 42.7422 50.594C42.6246 49.9524 42.7971 49.2924 43.2152 48.7914C43.6324 48.2904 44.251 48.0004 44.9032 48.0004H60.4056V52.3938H47.6781C48.4055 55.1185 49.8362 59.6527 52.2748 64.3448C57.3109 74.0345 64.0591 79.8182 72.3306 81.5361L71.4374 85.8381Z" fill="#EA7600"/>
<path d="M102.563 85.8381L101.67 81.5361C109.943 79.8182 116.69 74.0345 121.726 64.3448C124.165 59.6517 125.595 55.1185 126.323 52.3938H113.595V48.0004H129.097C129.75 48.0004 130.368 48.2904 130.785 48.7914C131.203 49.2924 131.376 49.9533 131.259 50.594C131.202 50.9033 129.821 58.2556 125.68 66.265C120.081 77.0926 112.087 83.861 102.563 85.8381Z" fill="#EA7600"/>
<path d="M86.9998 40.6713H58.0964C58.0964 40.6713 60.165 93.5691 86.9998 95.3438V40.6713Z" fill="#FF9E29"/>
<path d="M115.902 40.6711H86.999V95.3437C113.834 93.5689 115.902 40.6711 115.902 40.6711Z" fill="#F7AB48"/>
<path d="M86.9998 94.813H82.353C81.7161 94.813 81.1997 95.3294 81.1997 95.9663C81.1997 96.6031 81.7161 97.1196 82.353 97.1196H86.9998V94.813Z" fill="#FF9E29"/>
<path d="M86.999 94.813H91.6459C92.2827 94.813 92.7992 95.3294 92.7992 95.9663C92.7992 96.6031 92.2827 97.1196 91.6459 97.1196H86.999V94.813Z" fill="#F7AB48"/>
<path d="M115.956 121.083H58.0435V125.225H115.956V121.083Z" fill="#333A42"/>
<path d="M117.918 40.6713H56.083V45.109H117.918V40.6713Z" fill="#EA7600"/>
<path d="M117.917 45.1764H56.0146V40.6047H59.1643C59.2009 40.6047 59.2317 40.6346 59.2317 40.6722C59.2317 40.7098 59.2018 40.7396 59.1643 40.7396H56.1486V45.0435H117.916C117.953 45.0435 117.984 45.0733 117.984 45.1109C117.984 45.1456 117.954 45.1764 117.917 45.1764Z" fill="#000913"/>
<path d="M114.84 125.225H59.1587V148.064H114.84V125.225Z" fill="#F7AB48"/>
<path d="M124.703 153.212H49.2979V157.206H124.703V153.212Z" fill="#333A42"/>
<path d="M117.208 153.212H56.793L59.1593 148.064H114.841L117.208 153.212Z" fill="#FF9E29"/>
<g opacity="0.9">
<path d="M86.9994 56.2921L90.4525 63.2889L98.1738 64.4113L92.5866 69.8569L93.9056 77.5474L86.9994 73.916L80.0932 77.5474L81.4122 69.8569L75.825 64.4113L83.5463 63.2889L86.9994 56.2921Z" fill="#FEF8F2"/>
</g>
<path d="M111.424 117.651H62.4028C61.9528 117.651 61.5886 118.015 61.5886 118.465V120.268C61.5886 120.718 61.9528 121.082 62.4028 121.082H111.424C111.873 121.082 112.238 120.718 112.238 120.268V118.465C112.238 118.016 111.873 117.651 111.424 117.651Z" fill="#EA7600"/>
<g opacity="0.6">
<path d="M108.469 141.019V133.771C107.1 133.771 105.989 132.661 105.989 131.291H68.4107C68.4107 132.66 67.3007 133.771 65.9307 133.771V141.019C67.2998 141.019 68.4107 142.129 68.4107 143.499H105.989C105.989 142.13 107.1 141.019 108.469 141.019Z" fill="#FDE79D"/>
</g>
<path d="M107.873 132.505C108.202 132.505 108.469 132.238 108.469 131.909C108.469 131.579 108.202 131.312 107.873 131.312C107.543 131.312 107.276 131.579 107.276 131.909C107.276 132.238 107.543 132.505 107.873 132.505Z" fill="#000913"/>
<path d="M108.469 142.903C108.469 143.232 108.202 143.499 107.873 143.499C107.543 143.499 107.276 143.232 107.276 142.903C107.276 142.573 107.543 142.307 107.873 142.307C108.202 142.307 108.469 142.573 108.469 142.903Z" fill="#000913"/>
<path d="M67.1234 131.909C67.1234 132.238 66.8566 132.505 66.5271 132.505C66.1975 132.505 65.9307 132.238 65.9307 131.909C65.9307 131.579 66.1975 131.312 66.5271 131.312C66.8566 131.312 67.1234 131.579 67.1234 131.909Z" fill="#000913"/>
<path d="M67.1234 142.903C67.1234 143.233 66.8566 143.499 66.5271 143.499C66.1975 143.499 65.9307 143.233 65.9307 142.903C65.9307 142.574 66.1975 142.307 66.5271 142.307C66.8566 142.307 67.1234 142.574 67.1234 142.903Z" fill="#000913"/>
<path d="M97.6035 134.506H75.2605V135.089H97.6035V134.506Z" fill="#EA7600"/>
<path d="M100.041 136.645H72.8218V137.228H100.041V136.645Z" fill="#EA7600"/>
<path d="M97.6035 138.783H75.2605V139.366H97.6035V138.783Z" fill="#EA7600"/>
<path d="M63.1043 117.732C63.0677 117.732 63.0369 117.702 63.0369 117.665C63.0369 117.628 63.0667 117.597 63.1043 117.597L110.497 117.584C110.533 117.584 110.564 117.614 110.564 117.651C110.564 117.688 110.534 117.719 110.497 117.719L63.1043 117.732Z" fill="#000913"/>
<path d="M91.6463 94.8804H82.3536C82.317 94.8804 82.2861 94.8505 82.2861 94.8129C82.2861 94.7763 82.316 94.7455 82.3536 94.7455H91.6463C91.6829 94.7455 91.7138 94.7754 91.7138 94.8129C91.7138 94.8495 91.6829 94.8804 91.6463 94.8804Z" fill="#000913"/>
<path d="M91.6463 97.187H82.3536C82.317 97.187 82.2861 97.1571 82.2861 97.1196C82.2861 97.082 82.316 97.0521 82.3536 97.0521H91.6463C91.6829 97.0521 91.7138 97.082 91.7138 97.1196C91.7138 97.1571 91.6829 97.187 91.6463 97.187Z" fill="#000913"/>
<path d="M75.6312 112.731C75.608 112.731 75.5859 112.719 75.5734 112.698C75.5541 112.666 75.5647 112.625 75.5965 112.605C75.6129 112.596 77.2469 111.594 79.0149 109.196C80.647 106.982 82.731 103.091 83.3891 97.128C83.3929 97.0914 83.4267 97.0635 83.4633 97.0683C83.4999 97.0721 83.5269 97.1059 83.523 97.1425C82.8611 103.14 80.7626 107.055 79.119 109.282C77.3356 111.7 75.6832 112.711 75.6668 112.721C75.6553 112.727 75.6427 112.731 75.6312 112.731Z" fill="#000913"/>
<path d="M105.383 117.732C105.373 117.732 105.363 117.73 105.355 117.726C105.326 117.713 102.416 116.346 97.4734 111.944C97.4455 111.919 97.4436 111.876 97.4677 111.849C97.4917 111.821 97.5341 111.819 97.5621 111.843C102.486 116.23 105.382 117.591 105.41 117.605C105.443 117.62 105.458 117.66 105.442 117.694C105.433 117.718 105.409 117.732 105.383 117.732Z" fill="#000913"/>
<path d="M96.1846 115.623C96.1682 115.623 96.1509 115.617 96.1384 115.605L94.7596 114.28C94.7326 114.254 94.7317 114.212 94.7577 114.186C94.7837 114.159 94.8261 114.158 94.8521 114.184L96.2308 115.508C96.2578 115.534 96.2588 115.577 96.2328 115.603C96.2203 115.616 96.2019 115.623 96.1846 115.623Z" fill="#000913"/>
<path d="M96.1846 116.63C96.1682 116.63 96.1509 116.624 96.1384 116.612L94.7596 115.287C94.7326 115.261 94.7317 115.218 94.7577 115.192C94.7837 115.165 94.8261 115.164 94.8521 115.19L96.2308 116.515C96.2578 116.541 96.2588 116.584 96.2328 116.61C96.2203 116.622 96.2019 116.63 96.1846 116.63Z" fill="#000913"/>
<path d="M72.5486 87.8162C72.5293 87.8162 72.51 87.8075 72.4965 87.7921C69.5772 84.2426 67.0211 79.7894 64.8986 74.5568C63.2019 70.3724 61.7769 65.6822 60.6641 60.6172C58.7689 51.9941 58.4327 45.1813 58.4288 45.1129C58.4269 45.0763 58.4558 45.0445 58.4924 45.0426C58.53 45.0406 58.5608 45.0695 58.5627 45.1062C58.5656 45.1736 58.9028 51.9767 60.7951 60.5902C62.5409 68.536 66.0066 79.6902 72.5996 87.7073C72.6228 87.7362 72.6189 87.7786 72.59 87.8017C72.5784 87.8113 72.563 87.8162 72.5486 87.8162Z" fill="#000913"/>
<path d="M111.031 69.0312C111.024 69.0312 111.016 69.0303 111.008 69.0274C110.974 69.0148 110.955 68.9763 110.968 68.9416C113.621 61.6577 115.49 45.2671 115.509 45.1023C115.513 45.0657 115.546 45.0387 115.583 45.0435C115.619 45.0474 115.646 45.0811 115.642 45.1177C115.623 45.2825 113.752 61.6895 111.093 68.9879C111.084 69.0139 111.059 69.0312 111.031 69.0312Z" fill="#000913"/>
<path d="M128.405 52.4613H119.016C118.98 52.4613 118.949 52.4314 118.949 52.3939C118.949 52.3572 118.979 52.3264 119.016 52.3264H128.405C128.442 52.3264 128.473 52.3563 128.473 52.3939C128.473 52.4314 128.443 52.4613 128.405 52.4613Z" fill="#000913"/>
<path d="M118.22 70.1507C118.206 70.1507 118.192 70.1469 118.18 70.1382C118.151 70.116 118.144 70.0746 118.166 70.0447C118.223 69.9677 123.829 62.2396 126.258 52.3794C126.267 52.3437 126.303 52.3216 126.339 52.3302C126.375 52.3389 126.397 52.3755 126.388 52.4112C123.953 62.2984 118.33 70.0467 118.274 70.1238C118.261 70.1411 118.241 70.1507 118.22 70.1507Z" fill="#000913"/>
<path d="M53.0495 52.4613H45.8533C45.8167 52.4613 45.7859 52.4314 45.7859 52.3939C45.7859 52.3572 45.8158 52.3264 45.8533 52.3264H53.0495C53.0862 52.3264 53.117 52.3563 53.117 52.3939C53.117 52.4314 53.0862 52.4613 53.0495 52.4613Z" fill="#000913"/>
<path d="M53.605 66.8172C53.5829 66.8172 53.5607 66.8056 53.5482 66.7854C53.5087 66.7209 49.5334 60.2781 47.6113 52.4103C47.6026 52.3747 47.6247 52.3381 47.6604 52.3294C47.696 52.3207 47.7327 52.3429 47.7413 52.3785C49.6586 60.2241 53.6224 66.6505 53.6619 66.7141C53.6812 66.7459 53.6715 66.7873 53.6407 66.8066C53.6301 66.8134 53.6176 66.8172 53.605 66.8172Z" fill="#000913"/>
<path d="M71.0094 85.8131C71.0065 85.8131 71.0026 85.8131 70.9997 85.8121C70.9429 85.8035 65.2873 84.918 59.4139 80.2741C59.385 80.2509 59.3802 80.2086 59.4033 80.1797C59.4264 80.1507 59.4688 80.1459 59.4977 80.1691C65.3432 84.7909 70.9641 85.6715 71.02 85.6792C71.0566 85.685 71.0816 85.7187 71.0768 85.7553C71.0701 85.789 71.0412 85.8131 71.0094 85.8131Z" fill="#000913"/>
<path d="M111.205 82.5604C111.181 82.5604 111.158 82.5478 111.147 82.5257C111.129 82.4929 111.141 82.4524 111.174 82.4341C111.221 82.4081 115.924 79.8125 118.964 76.0048C118.987 75.9759 119.03 75.9711 119.059 75.9943C119.088 76.0174 119.092 76.0598 119.069 76.0887C116.012 79.9185 111.285 82.5266 111.238 82.5526C111.228 82.5575 111.217 82.5604 111.205 82.5604Z" fill="#000913"/>
<path d="M110.258 54.055C110.24 54.055 110.221 54.0473 110.207 54.0319L107.1 50.4265C107.076 50.3986 107.079 50.3562 107.107 50.3321C107.134 50.308 107.177 50.3109 107.201 50.3388L110.308 53.9442C110.332 53.9721 110.329 54.0145 110.301 54.0386C110.289 54.0502 110.273 54.055 110.258 54.055Z" fill="#000913"/>
<path d="M110.513 56.7189C110.494 56.7189 110.476 56.7112 110.462 56.6958L107.355 53.0905C107.331 53.0625 107.334 53.0201 107.362 52.996C107.39 52.972 107.432 52.9748 107.456 53.0028L110.563 56.6081C110.587 56.6361 110.585 56.6785 110.557 56.7025C110.544 56.7131 110.529 56.7189 110.513 56.7189Z" fill="#000913"/>
<path d="M80.0937 77.6148C80.0898 77.6148 80.086 77.6148 80.0821 77.6139C80.0455 77.6071 80.0214 77.5724 80.0272 77.5368L81.3462 69.8463C81.353 69.8097 81.3867 69.7856 81.4233 69.7914C81.4599 69.7981 81.484 69.8328 81.4782 69.8685L80.1592 77.5589C80.1544 77.5917 80.1265 77.6148 80.0937 77.6148Z" fill="#000913"/>
<path d="M75.8256 64.4778C75.7928 64.4778 75.7639 64.4537 75.7591 64.42C75.7533 64.3833 75.7793 64.3496 75.816 64.3438L83.5373 63.2214C83.5729 63.2156 83.6076 63.2416 83.6134 63.2782C83.6192 63.3148 83.5931 63.3486 83.5565 63.3543L75.8352 64.4768C75.8323 64.4778 75.8285 64.4778 75.8256 64.4778Z" fill="#000913"/>
<path d="M90.4526 63.3562C90.4276 63.3562 90.4045 63.3428 90.3919 63.3187L86.9388 56.3219C86.9225 56.2882 86.9359 56.2487 86.9697 56.2323C87.0024 56.2159 87.0429 56.2294 87.0593 56.2631L90.5124 63.2599C90.5288 63.2927 90.5153 63.3331 90.4815 63.3495C90.4729 63.3534 90.4632 63.3562 90.4526 63.3562Z" fill="#000913"/>
<path d="M92.5867 69.9243C92.5694 69.9243 92.5521 69.9176 92.5386 69.9041C92.5126 69.8771 92.5135 69.8347 92.5395 69.8097L98.1267 64.3632C98.1537 64.3371 98.1961 64.3381 98.2212 64.3641C98.2472 64.3911 98.2462 64.4335 98.2202 64.4585L92.633 69.9051C92.6205 69.9176 92.6041 69.9243 92.5867 69.9243Z" fill="#000913"/>
<path d="M93.9061 77.6147C93.8955 77.6147 93.8849 77.6119 93.8753 77.607L86.9691 73.9767C86.9363 73.9593 86.9238 73.9188 86.9412 73.8861C86.9585 73.8533 86.999 73.8408 87.0317 73.8581L93.9379 77.4885C93.9707 77.5059 93.9832 77.5463 93.9659 77.5791C93.9534 77.6013 93.9302 77.6147 93.9061 77.6147Z" fill="#000913"/>
<path d="M115.956 125.293C115.92 125.293 115.889 125.263 115.889 125.225V121.151H58.111V125.225C58.111 125.262 58.0811 125.293 58.0435 125.293C58.0069 125.293 57.9761 125.263 57.9761 125.225V121.017H116.023V125.225C116.024 125.262 115.994 125.293 115.956 125.293Z" fill="#000913"/>
<path d="M108.469 133.838C108.467 133.838 108.465 133.838 108.463 133.838C106.129 133.626 105.938 131.746 105.924 131.358H68.4107C68.3741 131.358 68.3433 131.328 68.3433 131.29C68.3433 131.253 68.3731 131.223 68.4107 131.223H106.059L106.057 131.292C106.054 131.382 106.013 133.479 108.475 133.703C108.512 133.706 108.54 133.738 108.536 133.776C108.533 133.812 108.504 133.838 108.469 133.838Z" fill="#000913"/>
<path d="M99.6833 143.567H68.4107C68.3741 143.567 68.3433 143.537 68.3433 143.499C68.3433 143.463 68.3731 143.432 68.4107 143.432H99.6833C99.7199 143.432 99.7507 143.462 99.7507 143.499C99.7507 143.537 99.7208 143.567 99.6833 143.567Z" fill="#000913"/>
<path d="M117.208 153.28C117.183 153.28 117.157 153.265 117.147 153.24L114.798 148.132H59.159C59.1224 148.132 59.0916 148.102 59.0916 148.064C59.0916 148.027 59.1214 147.997 59.159 147.997H114.884L114.902 148.036L117.268 153.184C117.284 153.218 117.269 153.257 117.236 153.273C117.226 153.278 117.216 153.28 117.208 153.28Z" fill="#000913"/>
<path d="M119.781 153.28H75.7881C75.7515 153.28 75.7207 153.25 75.7207 153.212C75.7207 153.176 75.7506 153.145 75.7881 153.145H119.781C119.818 153.145 119.849 153.175 119.849 153.212C119.849 153.25 119.819 153.28 119.781 153.28Z" fill="#000913"/>
<path d="M59.9816 150.665C59.9594 150.665 59.9383 150.654 59.9257 150.635C59.9055 150.604 59.9142 150.563 59.945 150.542L62.1186 149.117C62.1494 149.097 62.1909 149.106 62.2111 149.137C62.2313 149.167 62.2227 149.209 62.1918 149.229L60.0182 150.654C60.0067 150.661 59.9941 150.665 59.9816 150.665Z" fill="#000913"/>
<path d="M59.9816 151.843C59.9594 151.843 59.9383 151.832 59.9257 151.813C59.9055 151.782 59.9142 151.741 59.945 151.721L62.1186 150.296C62.1494 150.275 62.1909 150.284 62.2111 150.315C62.2313 150.346 62.2227 150.387 62.1918 150.407L60.0182 151.832C60.0067 151.839 59.9941 151.843 59.9816 151.843Z" fill="#000913"/>
<path d="M124.703 153.28H75.7881C75.7515 153.28 75.7207 153.25 75.7207 153.212C75.7207 153.176 75.7506 153.145 75.7881 153.145H124.703C124.74 153.145 124.77 153.175 124.77 153.212C124.77 153.25 124.74 153.28 124.703 153.28Z" fill="#000913"/>
<path d="M137.805 65.0691C137.511 67.0808 136.055 67.9114 135.72 67.8738L125.332 66.6849C124.074 66.5413 123.162 65.1192 123.328 63.3955C123.51 61.5071 124.824 60.0706 126.181 60.2257L136.523 61.4089C136.524 61.4089 138.099 63.0574 137.805 65.0691Z" fill="#F7C899"/>
<path d="M137.045 70.8524C136.779 72.8671 135.576 74.3296 135.24 74.3007L124.002 73.3132C122.739 73.2024 121.805 71.8072 121.947 70.0836C122.102 68.1952 123.399 66.7278 124.76 66.8473L136.284 67.8608C136.284 67.8599 137.309 68.8378 137.045 70.8524Z" fill="#F7C899"/>
<path d="M135.132 77.1243C134.901 79.0022 133.791 80.3809 133.477 80.3587L122.988 79.6053C121.809 79.5205 120.927 78.2372 121.044 76.631C121.173 74.8717 122.371 73.4872 123.642 73.5788L134.398 74.3515C134.399 74.3515 135.363 75.2465 135.132 77.1243Z" fill="#F7C899"/>
<path d="M136.541 68.5134C136.75 68.4758 136.934 68.2504 136.975 67.9594C137.023 67.6241 136.863 67.3312 136.617 67.3042L125.42 66.0787C124.368 65.9583 123.647 64.7857 123.78 63.4079C123.851 62.6699 124.134 61.9926 124.577 61.5012C125.02 61.0098 125.56 60.7719 126.097 60.8335L136.335 62.0051C136.579 62.0292 136.818 61.7835 136.866 61.4492C136.915 61.1139 136.756 60.82 136.509 60.7921L126.271 59.6205C125.499 59.5319 124.688 59.8884 124.048 60.5975C123.4 61.3162 122.985 62.3067 122.882 63.3858C122.687 65.4023 123.727 67.1193 125.247 67.2927L136.445 68.5192C136.477 68.5211 136.509 68.5192 136.541 68.5134Z" fill="#F2A75C"/>
<path d="M138.102 57.9925C137.868 60.011 136.616 61.4582 136.281 61.4264L125.072 60.3338C123.838 60.2134 122.902 58.8741 123.013 57.1823C123.139 55.2447 124.465 53.734 125.848 53.8689L136.308 54.8882C137.471 55.0019 138.238 56.8219 138.102 57.9925Z" fill="#F7C899"/>
<path d="M136.295 61.9727C136.504 61.9322 136.686 61.7029 136.725 61.412C136.769 61.0767 136.606 60.7857 136.36 60.7635L125.137 59.7249C124.082 59.6218 123.349 58.4628 123.469 57.085C123.534 56.347 123.811 55.6658 124.251 55.1677C124.69 54.6696 125.228 54.4229 125.765 54.4759L136.027 55.476C136.273 55.4962 136.509 55.2467 136.554 54.9124C136.6 54.5771 136.437 54.2861 136.191 54.262L125.929 53.2619C125.155 53.1868 124.347 53.5558 123.712 54.2745C123.07 55.0039 122.663 55.9992 122.57 57.0773C122.393 59.0938 123.449 60.7905 124.974 60.9389L136.198 61.9775C136.231 61.9814 136.263 61.9795 136.295 61.9727Z" fill="#F2A75C"/>
<path d="M134.935 74.535C135.149 74.4964 135.336 74.2604 135.372 73.9627C135.412 73.6274 135.245 73.3412 134.997 73.3239L124.019 72.5666C122.956 72.4731 122.287 71.4519 122.4 70.0828C122.459 69.3447 122.734 68.6626 123.171 68.1606C123.609 67.6586 124.143 67.4072 124.684 67.4544L136.208 68.468C136.454 68.4911 136.69 68.2358 136.733 67.8995C136.777 67.5642 136.613 67.2742 136.366 67.253L124.842 66.2394C124.066 66.1701 123.26 66.5478 122.629 67.2723C121.989 68.0074 121.588 69.0056 121.501 70.0828C121.336 72.0916 122.331 73.6467 123.869 73.7815L134.854 74.5388C134.88 74.5408 134.907 74.5398 134.935 74.535Z" fill="#F2A75C"/>
<path d="M133.455 80.534C133.669 80.4954 133.854 80.2594 133.891 79.9626C133.932 79.6274 133.765 79.3402 133.518 79.3229L123.029 78.5695C122.058 78.5001 121.37 77.4576 121.462 76.1964C121.512 75.52 121.758 74.8919 122.155 74.4265C122.552 73.9611 123.042 73.7232 123.536 73.7588L134.292 74.5315C134.536 74.5498 134.771 74.2916 134.812 73.9563C134.853 73.621 134.686 73.3339 134.439 73.3166L123.683 72.5439C122.951 72.4909 122.193 72.857 121.603 73.5488C121.006 74.2502 120.636 75.1954 120.561 76.2118C120.422 78.1128 121.441 79.6832 122.881 79.7863L133.371 80.5398C133.399 80.5407 133.427 80.5388 133.455 80.534Z" fill="#F2A75C"/>
<path d="M36.194 65.0695C36.4879 67.0812 37.9446 67.9117 38.279 67.8742L48.6672 66.6852C49.9255 66.5417 50.8369 65.1196 50.6712 63.3959C50.4891 61.5075 49.1749 60.071 47.8184 60.2261L37.4754 61.4102C37.4754 61.4092 35.9001 63.0577 36.194 65.0695Z" fill="#F7C899"/>
<path d="M36.9534 70.8522C37.2194 72.8668 38.4218 74.3294 38.758 74.3005L49.996 73.3129C51.2591 73.2021 52.1928 71.807 52.0511 70.0833C51.896 68.1949 50.5992 66.7275 49.2378 66.847L37.7136 67.8606C37.7136 67.8596 36.6875 68.8376 36.9534 70.8522Z" fill="#F7C899"/>
<path d="M38.8671 77.1245C39.0983 79.0023 40.2083 80.381 40.5224 80.3589L51.0117 79.6054C52.1901 79.5206 53.0726 78.2373 52.9551 76.6312C52.826 74.8719 51.6284 73.4873 50.3575 73.5789L39.6013 74.3516C39.6003 74.3516 38.6359 75.2467 38.8671 77.1245Z" fill="#F7C899"/>
<path d="M37.4584 68.5133C37.2493 68.4757 37.0653 68.2503 37.0239 67.9593C36.9767 67.624 37.1366 67.3311 37.3823 67.3041L48.5789 66.0786C49.631 65.9581 50.3526 64.7856 50.2197 63.4078C50.1484 62.6698 49.8651 61.9925 49.4219 61.5011C48.9787 61.0097 48.4392 60.7717 47.9025 60.8334L37.6646 62.005C37.4199 62.0291 37.1809 61.7834 37.1328 61.4491C37.0846 61.1138 37.2436 60.8199 37.4892 60.792L47.7272 59.6204C48.4989 59.5317 49.3102 59.8882 49.9499 60.5974C50.5983 61.3161 51.0136 62.3066 51.1167 63.3857C51.3113 65.4022 50.2717 67.1191 48.7513 67.2926L37.5548 68.5171C37.523 68.521 37.4902 68.5191 37.4584 68.5133Z" fill="#F2A75C"/>
<path d="M35.8989 57.993C36.133 60.0115 37.3845 61.4587 37.7198 61.4269L48.9289 60.3343C50.1631 60.2138 51.0987 58.8746 50.9879 57.1827C50.8617 55.2452 49.5359 53.7345 48.1524 53.8693L37.6929 54.8887C36.5299 55.0024 35.763 56.8224 35.8989 57.993Z" fill="#F7C899"/>
<path d="M37.7055 61.9728C37.4974 61.9324 37.3144 61.7031 37.2758 61.4121C37.2315 61.0768 37.3943 60.7858 37.641 60.7637L48.8636 59.725C49.9186 59.622 50.6518 58.4629 50.5313 57.0851C50.4668 56.3471 50.1893 55.6659 49.75 55.1678C49.3106 54.6697 48.773 54.423 48.2354 54.476L37.9734 55.4761C37.7277 55.4963 37.4907 55.2468 37.4464 54.9125C37.4011 54.5772 37.5639 54.2862 37.8096 54.2621L48.0716 53.262C48.8453 53.1869 49.6536 53.5559 50.2886 54.2747C50.9312 55.004 51.3378 55.9993 51.4312 57.0774C51.6076 59.094 50.5516 60.7906 49.0264 60.939L37.8028 61.9777C37.7701 61.9815 37.7373 61.9796 37.7055 61.9728Z" fill="#F2A75C"/>
<path d="M39.0665 74.5347C38.8526 74.4962 38.6657 74.2601 38.6301 73.9624C38.5896 73.6271 38.7572 73.341 39.0049 73.3237L49.9827 72.5664C51.0464 72.4729 51.7151 71.4516 51.6023 70.0825C51.5426 69.3445 51.268 68.6623 50.8306 68.1604C50.3932 67.6584 49.8584 67.4069 49.3179 67.4541L37.7938 68.4677C37.5481 68.4908 37.312 68.2355 37.2687 67.8993C37.2253 67.564 37.3891 67.274 37.6358 67.2528L49.1599 66.2392C49.9355 66.1698 50.7419 66.5475 51.373 67.272C52.0128 68.0072 52.4136 69.0053 52.5013 70.0825C52.666 72.0914 51.6707 73.6464 50.133 73.7813L39.1484 74.5386C39.1214 74.5405 39.0935 74.5396 39.0665 74.5347Z" fill="#F2A75C"/>
<path d="M40.5504 80.534C40.3365 80.4954 40.1505 80.2594 40.1139 79.9626C40.0734 79.6274 40.2401 79.3402 40.4868 79.3229L50.9761 78.5695C51.9473 78.5001 52.6353 77.4576 52.5428 76.1964C52.4927 75.52 52.247 74.8919 51.85 74.4265C51.4531 73.9611 50.9627 73.7232 50.4694 73.7588L39.7131 74.5315C39.4693 74.5498 39.2343 74.2916 39.1928 73.9563C39.1524 73.621 39.319 73.3339 39.5657 73.3166L50.3219 72.5439C51.0542 72.4909 51.8124 72.857 52.4021 73.5488C52.9995 74.2502 53.3694 75.1954 53.4436 76.2118C53.5833 78.1128 52.564 79.6832 51.1236 79.7863L40.6342 80.5398C40.6062 80.5407 40.5783 80.5388 40.5504 80.534Z" fill="#F2A75C"/>
</g>
</g>
<defs>
<clipPath id="clip0_250_10952">
<rect width="172" height="175.083" fill="white"/>
</clipPath>
</defs>
</svg>
